<?xml version="1.0" encoding="UTF-8" standalone="no"?> <svg height="512" viewBox="0 0 512 512" width="512" xmlns="http://www.w3.org/2000/svg"><g id="Flat"><g><path d="m359.97 298.652 4.306-8.8-57.491-28.12-66.785 136.539 3.157 1.544.358-.731 3.592 1.757a52.058 52.058 0 0 0 69.527-23.8l28.113-60.419 14.506 6.75-28.147 60.492c-.021.047-.044.094-.066.14a67.852 67.852 0 0 1 -42.683 35.553l-5.238 10.711 3.593 1.757a60 60 0 0 0 80.261-27.536l40.427-82.641z" fill="#fbb8b0"/><path d="m360 332.763-259.34 73a10 10 0 0 1 -12.335-6.917l-40.325-143.246 264 .4z" fill="#fac850"/><path d="m312 256-264-.4 11.373 40.4h277.639z" fill="#f29a49"/><g><rect fill="#fa5d3f" height="256" rx="10" width="400" x="24" y="24"/><g fill="#fac850"><path d="m88 104h-24v30a10 10 0 0 0 10 10h26.9l-12.49-37.47a8.021 8.021 0 0 1 -.41-2.53z"/><path d="m122.234 64h-4.468l-13.333 40 13.333 40h4.468l13.333-40z"/><path d="m100.9 64h-26.9a10 10 0 0 0 -10 10v14h28.9z"/><path d="m139.1 144h26.9a10 10 0 0 0 10-10v-14h-28.9z"/><path d="m166 64h-26.9l12.49 37.47a8.021 8.021 0 0 1 .41 2.53h24v-30a10 10 0 0 0 -10-10z"/></g><path d="m324 64h40a20 20 0 0 1 20 20v20a0 0 0 0 1 0 0h-60a20 20 0 0 1 -20-20 20 20 0 0 1 20-20z" fill="#fffefd"/><path d="m56 176h40v16h-40z" fill="#fffefd"/><path d="m112 176h88v16h-88z" fill="#fffefd"/><g fill="#cc4c33"><path d="m56 224h24v16h-24z"/><path d="m96 224h24v16h-24z"/><path d="m136 224h24v16h-24z"/><path d="m176 224h24v16h-24z"/><path d="m344 128h48v16h-48z"/><path d="m296 128h32v16h-32z"/></g></g><path d="m294 176h90a0 0 0 0 1 0 0v26a30 30 0 0 1 -30 30h-90a0 0 0 0 1 0 0v-26a30 30 0 0 1 30-30z" fill="#fac850"/><path d="m359.531 488v-120l-49.1-79.939a60 60 0 0 1 15.6-81.27l9.5-6.791 64 80h14.605a10 10 0 0 0 10-10v-166h15a20 20 0 0 1 19.611 16.078l28.784 143.922-24 112v112z" fill="#ffd4cf"/></g></g></svg>